# xmcd CD database file
#
# Track frame offsets:
#	150
#	7668
#	30768
#	53782
#	72696
#	95149
#	101902
#	119994
#	141282
#	165186
#	189450
#	199598
#
# Disc length: 2908 seconds
#
# Revision: 0
# Processed by: cddbd v1.5.1PL0 Copyright (c) Steve Scherf et al.
# Submitted via: CDex 1.51
#
DISCID=a30b5a0c
DTITLE=hitch hiker - #0002d.i.t.s
DYEAR=2002
DGENRE=テック トランス
TTITLE0=pressentiment
TTITLE1=acasia
TTITLE2=MIDNITE LOVERS
TTITLE3=LEViTATION-2002ver
TTITLE4=reincarnation-another
TTITLE5=sieste
TTITLE6=SQUALL-morejazzy style
TTITLE7=retrouvailles
TTITLE8=It's clouded...morejazzy style
TTITLE9=BREEZE
TTITLE10=roi de noir
TTITLE11=tiare
EXTD=YEAR: 2002
EXTT0=
EXTT1=
EXTT2=
EXTT3=
EXTT4=
EXTT5=
EXTT6=
EXTT7=
EXTT8=
EXTT9=
EXTT10=
EXTT11=
PLAYORDER=
